<svg id="Layer_1" data-name="Layer 1" xmlns="http://www.w3.org/2000/svg" viewBox="0 0 934.5 195.03"><defs><style>.cls-1{fill:#00a2e8;}.cls-2{fill:#31c1ff;}.cls-3{fill:#efe4b0;}</style></defs><path class="cls-1" d="M0,0H.11L0,0Z"/><path class="cls-1" d="M245.92,41.44c115.92-21.08,234-27.09,351.57-29.52,14-.06,28-.16,42,.25,47.92,2.55,96.44-2.35,144,5.93q.2,82.86,0,165.74c-16.53,2.5-33.3,2.48-50,3.19Q655.3,190.09,577,188.57c-67.08-1.67-134.22-4-201-11.16-47.26-4.45-94.48-10.28-141-20-31.49-6.22-62.9-13.92-92.48-26.59C131,125.24,118.54,119.26,111.46,108c-2.48-4.82-2.68-11.09.41-15.68,7.29-11.17,19.77-17.13,31.54-22.52C176.17,55.88,211.06,48,245.92,41.44Z"/><path d="M562.5,7.84c48.31-1.75,96.66-.55,145-.94,20.4-.43,40.64,2.65,61,3,12.29-.06,23.85,4.95,36,5.88,14.24,1.24,27.18,7.83,41,11.13,24,8,48.24,17.67,67.66,34.37,10,8.87,19.15,20.35,20.85,34.06,1.69,9.93-1,20.27-6.55,28.57-11.07,18.17-30.16,29.06-48.64,38.35-30.13,13.6-62.42,21.91-95,27-34.88,4.11-70,6.82-105.18,5.36-25.36-1.37-50.77-.46-76.14-.67-78.91-1.34-157.91-4-236.42-12.56-39.22-3.55-78.26-9-117-16-37.2-7.3-74.65-15.3-109.55-30.5-6.81-2.83-12.88-7-19.14-10.83-2.4-1.92-5.08.27-7.14,1.61-20.87,15.63-42.75,29.83-63.63,45.43-7.31,5-14.16,11.19-22.62,14.21-1.13-38.77-.21-77.58-.48-116.36.14-19.81-.48-39.63.34-59.42,7,2.37,12.55,7.49,18.67,11.41,25.25,18.14,50.61,36.17,76.14,53.86,5.13-.68,9.14-4.84,13.89-6.74,14.5-7,29.81-12.27,45.28-16.73,63.7-17.9,129.62-25.75,195.24-32.77Q469.06,9.86,562.5,7.84ZM245.92,41.44C211.06,48,176.17,55.88,143.41,69.76c-11.77,5.39-24.25,11.35-31.54,22.52-3.09,4.59-2.89,10.86-.41,15.68,7.08,11.3,19.55,17.28,31.16,22.82,29.58,12.67,61,20.37,92.48,26.59,46.49,9.76,93.71,15.59,141,20,66.75,7.11,133.89,9.49,201,11.16Q655.25,190,733.48,187c16.66-.71,33.43-.69,50-3.19q.12-82.87,0-165.74c-47.53-8.28-96-3.38-144-5.93-14-.41-28-.31-42-.25C479.89,14.35,361.84,20.36,245.92,41.44ZM31.61,17.54c-.17,53.28-.28,106.55.07,159.83C47.35,167.14,62,155.49,77.49,145c12.24-8.17,24-17,36.08-25.4-4.52-6.41-10.55-13.66-8.51-22.18.88-8,7.21-13.71,12.72-18.87Q74.87,47.8,31.61,17.54Zm756.91,1.17q-.07,82.23,0,164.44c31.54-5.42,63-13.23,91.9-27.3,17.45-9.11,35.48-20,44.77-38.15,5.6-10,5.35-22.68.47-32.92C917.24,68,901,57.31,885.12,48.32,854.93,32.93,821.78,24.38,788.52,18.71Z"/><path d="M863.88,69.3c4.45-1.35,9,1.9,10.24,6,1.34,4.46-1.9,9-6,10.24-4.47,1.35-9-1.9-10.24-6C856.5,75.07,859.76,70.59,863.88,69.3Z"/><path class="cls-2" d="M31.61,17.54q43.29,30.21,86.17,61c-5.51,5.16-11.84,10.88-12.72,18.87-2,8.52,4,15.77,8.51,22.18C101.51,128,89.73,136.8,77.49,145,62,155.49,47.35,167.14,31.68,177.37,31.33,124.09,31.44,70.82,31.61,17.54Z"/><path class="cls-3" d="M788.52,18.71c33.26,5.67,66.41,14.22,96.6,29.61,15.83,9,32.12,19.7,40.57,36.46,4.88,10.24,5.13,22.92-.47,32.92-9.29,18.14-27.32,29-44.77,38.15-28.88,14.07-60.36,21.88-91.9,27.3Q788.37,100.94,788.52,18.71ZM863.88,69.3c-4.12,1.29-7.38,5.77-6,10.24,1.29,4.12,5.77,7.37,10.24,6,4.12-1.28,7.36-5.78,6-10.24C872.84,71.2,868.33,68,863.88,69.3Z"/></svg>